<svg width="12" height="13" viewBox="0 0 12 13" fill="none" xmlns="http://www.w3.org/2000/svg">
<path d="M11.5781 6.12187L5.675 0.998437C5.62969 0.959375 5.57188 0.9375 5.51094 0.9375H4.12813C4.0125 0.9375 3.95938 1.08125 4.04688 1.15625L9.51875 5.90625H0.375C0.30625 5.90625 0.25 5.9625 0.25 6.03125V6.96875C0.25 7.0375 0.30625 7.09375 0.375 7.09375H9.51719L4.04531 11.8438C3.95781 11.9203 4.01094 12.0625 4.12656 12.0625H5.55625C5.58594 12.0625 5.61563 12.0516 5.6375 12.0312L11.5781 6.87813C11.6322 6.83109 11.6756 6.77299 11.7053 6.70776C11.735 6.64253 11.7504 6.57168 11.7504 6.5C11.7504 6.42832 11.735 6.35747 11.7053 6.29224C11.6756 6.22701 11.6322 6.16891 11.5781 6.12187Z" fill="black"/>
</svg>
