<svg xmlns="http://www.w3.org/2000/svg" viewBox="0 0 1325.8 232.44"><defs><style>.cls-1{fill:#08003f;}</style></defs><g id="Layer_2" data-name="Layer 2"><g id="Layer_1-2" data-name="Layer 1"><path class="cls-1" d="M140.36,159.66q0,35.42-17.38,54.09T72.13,232.44q-33.46,0-52.8-18.69T0,159.66V142.11H27.29v17.55q0,21.43,11.05,34.44t33.79,13q22.74,0,31.84-13t9.1-34.44V25.79H0V.45H159.86V25.79h-19.5Z"/><path class="cls-1" d="M300.87,200.59H297q-7.79,16.26-21.6,24a58.28,58.28,0,0,1-29.08,7.8,80.23,80.23,0,0,1-29.57-5.36,66.93,66.93,0,0,1-23.88-15.93,75.12,75.12,0,0,1-16.09-25.83q-5.83-15.27-5.84-35.41v-5.2q0-19.82,5.84-35.09a75.31,75.31,0,0,1,16.09-25.83A69,69,0,0,1,216.72,67.7a76.37,76.37,0,0,1,28.92-5.52,62.07,62.07,0,0,1,30.05,7.31Q289.18,76.81,297,92.07h3.9V66.73h25.35v128q0,9.74,8.77,9.74h8.12v23.4H325.89q-11.06,0-18-7.15t-7-18.2Zm-52,7.8a51.29,51.29,0,0,0,20.95-4.22,46.3,46.3,0,0,0,16.41-12A57.43,57.43,0,0,0,297,173.46a71.3,71.3,0,0,0,3.9-24.2v-3.9a70.37,70.37,0,0,0-3.9-23.88,56,56,0,0,0-10.88-18.69,50.07,50.07,0,0,0-16.57-12.18,49.06,49.06,0,0,0-20.63-4.39,50.19,50.19,0,0,0-20.8,4.23,49.52,49.52,0,0,0-16.41,11.86,54,54,0,0,0-10.88,18.52,70.37,70.37,0,0,0-3.9,23.88v5.2q0,27.61,14.46,43.05T248.89,208.39Z"/><path class="cls-1" d="M388.6,227.89H363.26V66.73H388.6V94h3.9q14.94-31.83,52-31.84,27.93,0,44.51,17.38t16.57,52.15v96.18H480.23v-91q0-25.34-11.38-38T438,86.22q-23.08,0-36.23,15.76T388.6,144.06Z"/><path class="cls-1" d="M561.13,155.11q1,24,15,38.66t39,14.62a67.46,67.46,0,0,0,19.82-2.6,46.23,46.23,0,0,0,14.46-7.15,39.06,39.06,0,0,0,9.74-10.55,60.21,60.21,0,0,0,6-12.84l24,6.5A71.17,71.17,0,0,1,664,218.3q-18.36,14.13-49.55,14.14a81.79,81.79,0,0,1-31.68-6,71.34,71.34,0,0,1-24.86-17.06,79.11,79.11,0,0,1-16.24-26.32,93.78,93.78,0,0,1-5.85-33.79v-7.8a82.06,82.06,0,0,1,6-31.52,74.74,74.74,0,0,1,16.73-25.18,78.55,78.55,0,0,1,25.18-16.57,81,81,0,0,1,31.36-6q19.81,0,34.28,7.31a76.6,76.6,0,0,1,23.71,18,71.11,71.11,0,0,1,13.65,23.4,72,72,0,0,1,4.39,23.39v20.8Zm53.94-68.89a57.29,57.29,0,0,0-20,3.42,50.42,50.42,0,0,0-27.61,24,52.93,52.93,0,0,0-5.69,18h104a46.29,46.29,0,0,0-16.4-33.14,52.65,52.65,0,0,0-15.93-9.1A53.44,53.44,0,0,0,615.07,86.22Z"/><path class="cls-1" d="M846.73.45V92.07h-3.9a50,50,0,0,0-22.25-22.58,67.88,67.88,0,0,0-31-7.31A79.72,79.72,0,0,0,760,67.7a69.89,69.89,0,0,0-24.37,16.09,77.48,77.48,0,0,0-16.57,26q-6.18,15.43-6.17,34.93v5.2q0,19.82,6,35.25A71.08,71.08,0,0,0,760,226.91a81.46,81.46,0,0,0,30.22,5.53,66.92,66.92,0,0,0,14.94-1.79,63.56,63.56,0,0,0,14.79-5.36,58.49,58.49,0,0,0,13-9.1,46.66,46.66,0,0,0,9.91-13h3.9v24.7h25.35V25.45h21V.45Zm0,148.81a66.48,66.48,0,0,1-4.22,24.2A57.23,57.23,0,0,1,831,192.15a50.69,50.69,0,0,1-17.05,12,52.48,52.48,0,0,1-21.12,4.22,55.2,55.2,0,0,1-21.45-4.06,50,50,0,0,1-17.06-11.7,53.7,53.7,0,0,1-11.37-18.35,68.39,68.39,0,0,1-4.06-24.37v-5.2A66.46,66.46,0,0,1,742.92,121a55.54,55.54,0,0,1,11.37-18.52,50.62,50.62,0,0,1,17.22-12,53.66,53.66,0,0,1,21.29-4.23,51.27,51.27,0,0,1,21,4.39A52.57,52.57,0,0,1,831,102.79a57.23,57.23,0,0,1,11.54,18.69,65.62,65.62,0,0,1,4.22,23.88Z"/><path class="cls-1" d="M984.5,110.53H921.64A116.27,116.27,0,0,1,1016.07,0L1008,13.91A173.49,173.49,0,0,0,984.5,110.53Z"/><path class="cls-1" d="M1037.82,230.45h-.38a116.29,116.29,0,0,1-113.86-94.6H987.7a173.34,173.34,0,0,0,32,70.81l17.91,23.55Z"/><path class="cls-1" d="M1087.56,135.85h63.86a116.25,116.25,0,0,1-113.6,94.6h-.38l.19-.24,17.91-23.55A173.47,173.47,0,0,0,1087.56,135.85Z"/><path class="cls-1" d="M1067.3,13.91,1059.21.05a116.28,116.28,0,0,1,94.17,110.48h-62.62A173.58,173.58,0,0,0,1067.3,13.91Z"/><path class="cls-1" d="M1070.49,110.53h-65.26a186.54,186.54,0,0,1,24.47-76.22l8.22-14.08h.08l8.21,14.08A184.62,184.62,0,0,1,1070.49,110.53Z"/><path class="cls-1" d="M1071.05,135.85c-1.6,33.69-12.57,66.71-33.4,94.16-20.83-27.45-31.66-60.47-33.1-94.16Z"/><polygon class="cls-1" points="1249.16 230.99 1180.43 171.33 1197.8 156.25 1249.16 200.84 1290.22 165.2 1171.33 71.33 1247.96 4.82 1316.69 64.48 1299.33 79.55 1247.96 34.97 1206.9 70.6 1325.8 164.47 1249.16 230.99"/></g></g></svg>