<svg width="55" height="54" viewBox="0 0 55 54" fill="none" xmlns="http://www.w3.org/2000/svg">
<circle cx="27.5" cy="27" r="27" fill="#08003F"/>
<path d="M27.5 12C19.2288 12 12.5 18.7288 12.5 27C12.5 35.2712 19.2288 42 27.5 42C35.7712 42 42.5 35.2712 42.5 27C42.5 18.7288 35.7712 12 27.5 12ZM33.9382 30.0258C34.0212 29.0277 34.0667 28.0139 34.0667 27C34.0667 25.9861 34.0212 24.9723 33.9382 23.9742C37.6327 24.7785 39.5968 26.1581 39.5968 27C39.5968 27.8419 37.6327 29.2215 33.9382 30.0258ZM27.5 39.0968C26.6581 39.0968 25.2785 37.1327 24.4742 33.4382C25.4723 33.5212 26.4861 33.5667 27.5 33.5667C28.5139 33.5667 29.5277 33.5212 30.5258 33.4382C29.7215 37.1327 28.3419 39.0968 27.5 39.0968ZM27.5 30.6635C26.2417 30.6635 25.086 30.5957 24.0145 30.4855C23.9043 29.414 23.8365 28.2583 23.8365 27C23.8365 25.7417 23.9043 24.586 24.0145 23.5145C25.086 23.4043 26.2417 23.3365 27.5 23.3365C28.7583 23.3365 29.914 23.4043 30.9855 23.5145C31.0957 24.586 31.1635 25.7417 31.1635 27C31.1635 28.2583 31.0957 29.414 30.9855 30.4855C29.914 30.5957 28.7583 30.6635 27.5 30.6635ZM15.4032 27C15.4032 26.1581 17.3673 24.7785 21.0618 23.9742C20.9788 24.9723 20.9333 25.9861 20.9333 27C20.9333 28.0139 20.9788 29.0277 21.0618 30.0258C17.3673 29.2215 15.4032 27.8419 15.4032 27ZM27.5 14.9032C28.3419 14.9032 29.7215 16.8673 30.5258 20.5618C29.5277 20.4788 28.5139 20.4333 27.5 20.4333C26.4861 20.4333 25.4723 20.4788 24.4742 20.5618C25.2785 16.8673 26.6581 14.9032 27.5 14.9032ZM38.72 22.5012C37.2669 21.8143 35.4847 21.3 33.5457 20.9543C33.2 19.0153 32.6857 17.2331 31.9988 15.78C35.0534 17.0094 37.4906 19.4466 38.72 22.5012ZM23.0012 15.7801C22.3143 17.2332 21.8 19.0154 21.4543 20.9543C19.5154 21.3 17.7332 21.8142 16.2801 22.5012C17.5094 19.4465 19.9467 17.0094 23.0012 15.7801ZM16.2801 31.4988C17.7332 32.1858 19.5154 32.7 21.4543 33.0457C21.8 34.9846 22.3142 36.7668 23.0012 38.2199C19.9467 36.9905 17.5095 34.5533 16.2801 31.4988ZM31.9988 38.2199C32.6858 36.7668 33.2 34.9846 33.5457 33.0457C35.4846 32.7 37.2668 32.1857 38.7199 31.4988C37.4906 34.5533 35.0535 36.9906 31.9988 38.2199Z" fill="white"/>
</svg>
